{"accessors":[{"name":"Text-Mesh_positions","componentType":5126,"count":488,"min":[-0.05758599936962128,-0.033709000796079636,-0.3806309998035431],"max":[0.06241400167346001,0.026290999725461006,0.31936898827552795],"type":"VEC3","bufferView":0,"byteOffset":0},{"name":"Text-Mesh_normals","componentType":5126,"count":488,"min":[-1,-1,-1],"max":[1,1,1],"type":"VEC3","bufferView":0,"byteOffset":5856},{"name":"Text-Mesh_0_indices","componentType":5123,"count":1440,"min":[0],"max":[487],"type":"SCALAR","bufferView":1,"byteOffset":0}],"asset":{"generator":"obj2gltf","version":"2.0"},"buffers":[{"name":"input","byteLength":14592,"uri":"data:application/octet-stream;base64,"}],"bufferViews":[{"name":"bufferView_0","buffer":0,"byteLength":11712,"byteOffset":0,"byteStride":12,"target":34962},{"name":"bufferView_1","buffer":0,"byteLength":2880,"byteOffset":11712,"target":34963}],"materials":[{"name":"None","pbrMetallicRoughness":{"baseColorFactor":[0.5,0.5,0.5,1],"metallicFactor":0,"roughnessFactor":1},"emissiveFactor":[0,0,0],"alphaMode":"OPAQUE","doubleSided":false}],"meshes":[{"name":"Text-Mesh","primitives":[{"attributes":{"POSITION":0,"NORMAL":1},"indices":2,"material":0,"mode":4}]}],"nodes":[{"name":"Text","mesh":0}],"scene":0,"scenes":[{"nodes":[0]}]}
